<svg xmlns="http://www.w3.org/2000/svg" xmlns:xlink="http://www.w3.org/1999/xlink" width="200" height="200" viewBox="0 0 200 200">
  <defs>
    <ellipse id="avatar-a" cx="66" cy="42.5" rx="35" ry="42.5"/>
  </defs>
  <g fill="none" fill-rule="evenodd">
    <circle cx="100" cy="100" r="100" fill="#F5F5F6"/>
    <g transform="translate(34 36)">
      <path fill="#C2C6C9" d="M131.097847,139.116921 C131.373273,136.495162 131.350649,133.800109 130.999215,131.071616 L130.999215,131.071616 L130.999215,130 C130.999215,105.699471 111.299744,86 86.9992152,86 L86.9992152,86 L42.6443782,86 L42.6443782,86 C19.4483703,86 0.644290613,104.80408 0.644290613,128.000088 L0.644290613,128.000088 L0.644290613,128.000088 C0.528545987,129.212011 0.470575204,130.428758 0.470575204,131.646196 C0.470575204,134.67775 0.822322393,137.627148 1.4872304,140.455806 C18.3652988,154.86565 40.8450667,163.657227 65.5255474,163.657227 C90.9614572,163.657227 114.059872,154.319222 131.097854,139.116914 Z"/>
      <use fill="#C2C6C9" xlink:href="#avatar-a"/>
      <ellipse cx="66" cy="42.5" stroke="#F5F5F6" stroke-width="8" rx="39" ry="46.5"/>
    </g>
  </g>
</svg>
